HIERARCHY
ROOT SpineBase
{
  OFFSET 0.000000 0.000000 0.000000
  CHANNELS 6 Xposition Yposition Zposition Zrotation Xrotation Yrotation
  JOINT SpineMid
  {
    OFFSET 0.000000 32.209323 0.000000
    CHANNELS 3 Zrotation Xrotation Yrotation
    JOINT SpineShoulder
    {
      OFFSET 0.107364 23.847130 -0.750534
      CHANNELS 3 Zrotation Xrotation Yrotation
      JOINT Neck
      {
        OFFSET 0.067201 7.879418 -0.590084
        CHANNELS 3 Zrotation Xrotation Yrotation
        JOINT Head
        {
          OFFSET 1.382450 16.113908 0.224293
          CHANNELS 3 Zrotation Xrotation Yrotation
          End Site
          {
            OFFSET 0 0 0
          }
        }
      }
      JOINT ShoulderLeft
      {
        OFFSET -15.636922 -3.280992 -4.484999
        CHANNELS 3 Zrotation Xrotation Yrotation
        JOINT ElbowLeft
        {
          OFFSET -4.411210 -26.621083 -0.848071
          CHANNELS 3 Zrotation Xrotation Yrotation
          JOINT WristLeft
          {
            OFFSET 0.381990 -23.807681 -4.596799
            CHANNELS 3 Zrotation Xrotation Yrotation
            JOINT HandLeft
            {
              OFFSET 0.914034 -4.915583 0.000813
              CHANNELS 3 Zrotation Xrotation Yrotation
              JOINT HandTipLeft
              {
                OFFSET 0.176202 -7.121914 -0.837099
                CHANNELS 3 Zrotation Xrotation Yrotation
                End Site
                {
                  OFFSET 0 0 0
                }
              }
              JOINT ThumbLeft
              {
                OFFSET -2.640676 -0.666267 -1.743352
                CHANNELS 3 Zrotation Xrotation Yrotation
                End Site
                {
                  OFFSET 0 0 0
                }
              }
            }
          }
        }
      }
      JOINT ShoulderRight
      {
        OFFSET 16.013006 -4.039291 1.386621
        CHANNELS 3 Zrotation Xrotation Yrotation
        JOINT ElbowRight
        {
          OFFSET 2.567423 -29.393828 3.262754
          CHANNELS 3 Zrotation Xrotation Yrotation
          JOINT WristRight
          {
            OFFSET 1.234837 -23.839173 -4.058135
            CHANNELS 3 Zrotation Xrotation Yrotation
            JOINT HandRight
            {
              OFFSET -2.126808 -5.710109 -1.399999
              CHANNELS 3 Zrotation Xrotation Yrotation
              JOINT HandTipRight
              {
                OFFSET -0.822618 -6.291732 -1.762059
                CHANNELS 3 Zrotation Xrotation Yrotation
                End Site
                {
                  OFFSET 0 0 0
                }
              }
              JOINT ThumbRight
              {
                OFFSET 2.555551 0.133683 -0.262599
                CHANNELS 3 Zrotation Xrotation Yrotation
                End Site
                {
                  OFFSET 0 0 0
                }
              }
            }
          }
        }
      }
    }
  }
  JOINT HipLeft
  {
    OFFSET -6.684155 0.991171 -4.719063
    CHANNELS 3 Zrotation Xrotation Yrotation
    JOINT KneeLeft
    {
      OFFSET -5.143274 -32.046257 -0.971009
      CHANNELS 3 Zrotation Xrotation Yrotation
      JOINT AnkleLeft
      {
        OFFSET -2.102422 -39.340994 11.060419
        CHANNELS 3 Zrotation Xrotation Yrotation
        JOINT FootLeft
        {
          OFFSET 2.239130 -6.519264 -8.545965
          CHANNELS 3 Zrotation Xrotation Yrotation
          End Site
          {
            OFFSET 0 0 0
          }
        }
      }
    }
  }
  JOINT HipRight
  {
    OFFSET 7.836183 0.777378 -2.606026
    CHANNELS 3 Zrotation Xrotation Yrotation
    JOINT KneeRight
    {
      OFFSET -0.433722 -33.707733 2.625711
      CHANNELS 3 Zrotation Xrotation Yrotation
      JOINT AnkleRight
      {
        OFFSET -3.283281 -39.454105 10.409000
        CHANNELS 3 Zrotation Xrotation Yrotation
        JOINT FootRight
        {
          OFFSET 0.564469 -8.402597 -5.828462
          CHANNELS 3 Zrotation Xrotation Yrotation
          End Site
          {
            OFFSET 0 0 0
          }
        }
      }
    }
  }
}
MOTION
Frames: 16
Frame Time: 0.033333
-55.238390 81.474287 354.466644 -0.000000 0.000000 -8.279711 0.000000 0.000000 8.279711 -0.000000 0.000000 0.000000 -0.000000 0.000000 0.000000 0.000000 0.000000 0.000000 -0.000000 0.000000 0.000000 -0.000000 0.000000 0.000000 -0.000000 0.000000 0.000000 -0.000000 0.000000 0.000000 0.000000 0.000000 0.000000 0.000000 0.000000 0.000000 -0.000000 0.000000 0.000000 -0.000000 0.000000 0.000000 -0.000000 0.000000 0.000000 -0.000000 0.000000 0.000000 0.000000 0.000000 0.000000 0.000000 0.000000 0.000000 0.000000 0.000000 8.279711 -0.000000 0.000000 0.000000 -0.000000 0.000000 0.000000 0.000000 0.000000 0.000000 0.000000 0.000000 8.279711 -0.000000 0.000000 0.000000 -0.000000 0.000000 0.000000 0.000000 0.000000 0.000000
-55.210254 81.467927 354.476205 0.075104 -0.033712 -8.436626 -0.079238 0.022329 8.436663 -0.000000 0.000000 0.000000 -2.019751 2.046722 -0.111217 0.000000 0.000000 0.000000 -0.000000 0.000000 0.000000 -0.000000 0.000000 0.000000 -0.176801 2.250222 0.422038 0.160350 -2.251453 -0.415414 0.000000 0.000000 0.000000 0.000000 0.000000 0.000000 -0.000000 0.000000 0.000000 -0.000000 0.000000 0.000000 0.031548 2.160829 -0.809582 -0.001022 -2.161059 0.808967 0.000000 0.000000 0.000000 0.000000 0.000000 0.000000 -0.079238 0.022329 8.436663 -0.000000 0.000000 0.000000 -1.056694 -0.769597 1.127267 0.000000 0.000000 0.000000 -0.079238 0.022329 8.436663 -0.000000 0.000000 0.000000 1.358366 4.565779 -0.670465 0.000000 0.000000 0.000000
-55.186240 81.462247 354.485643 0.141343 -0.064635 -8.593676 -0.149414 0.042788 8.593811 -0.000000 0.000000 0.000000 -3.875200 3.851965 -0.145779 0.000000 0.000000 0.000000 -0.000000 0.000000 0.000000 0.613856 -0.719926 -0.126362 -0.937206 4.730310 0.896125 0.259596 -4.016258 -0.737644 0.000000 0.000000 0.000000 0.000000 0.000000 0.000000 -0.000000 0.000000 0.000000 -0.000000 0.000000 0.000000 0.068077 4.015870 -1.502784 -0.811391 -3.027533 1.547179 0.000000 0.000000 0.000000 0.000000 0.000000 0.000000 -0.149414 0.042788 8.593811 -0.000000 0.000000 0.000000 -1.833863 -1.087601 2.049764 0.000000 0.000000 0.000000 -0.149414 0.042788 8.593811 -0.000000 0.000000 0.000000 2.491611 7.811951 -1.309147 0.000000 0.000000 0.000000
-55.166348 81.457248 354.494957 0.198710 -0.092764 -8.750951 -0.210510 0.061452 8.751224 -0.000000 0.000000 0.000000 -5.549751 5.390708 -0.123447 0.000000 0.000000 0.000000 -1.094275 -0.256934 0.074870 1.942474 -0.755995 -0.256533 -1.276119 6.369191 1.213795 1.394070 -5.925928 -1.018463 0.000000 0.000000 0.000000 0.000000 0.000000 0.000000 -0.000000 0.000000 0.000000 -0.000000 0.000000 0.000000 0.097672 5.551453 -2.073794 -0.966592 -4.262935 2.094396 0.000000 0.000000 0.000000 0.000000 0.000000 0.000000 -0.210510 0.061452 8.751224 -0.000000 0.000000 0.000000 -2.333402 -0.936596 2.766934 0.000000 0.000000 0.000000 -0.210510 0.061452 8.751224 -0.000000 0.000000 0.000000 3.389010 9.815828 -1.866486 0.000000 0.000000 0.000000
-55.150577 81.452930 354.504149 0.247202 -0.118098 -8.908536 -0.262509 0.078391 8.908971 -0.000000 0.000000 0.000000 -7.029497 6.645216 -0.063779 0.000000 0.000000 0.000000 -1.377390 -0.338047 0.095653 2.412813 -0.920131 -0.319278 -1.525661 7.604766 1.453596 1.831641 -7.078281 -1.184089 0.000000 0.000000 0.000000 0.000000 0.000000 0.000000 -0.000000 0.000000 0.000000 0.342897 -0.744460 -0.094796 -0.245577 7.503866 -2.419592 -0.906609 -5.343596 2.503550 0.000000 0.000000 0.000000 0.000000 0.000000 0.000000 -0.262509 0.078391 8.908971 -0.000000 0.000000 0.000000 -2.559332 -0.313283 3.276934 0.000000 0.000000 0.000000 -0.262509 0.078391 8.908971 -0.000000 0.000000 0.000000 4.043215 10.646065 -2.310247 0.000000 0.000000 0.000000
-55.138929 81.449293 354.513217 0.286816 -0.140635 -9.066514 -0.305394 0.093679 9.067116 -0.000000 0.000000 0.000000 -8.303040 7.603662 0.015093 0.000000 0.000000 0.000000 -1.617070 -0.416218 0.114360 2.792191 -1.040460 -0.370830 -1.684157 8.475505 1.619640 2.268239 -7.895500 -1.287327 0.000000 0.000000 0.000000 0.000000 0.000000 0.000000 -0.000000 0.000000 0.000000 0.390668 -0.787575 -0.104718 -0.309134 8.424492 -2.723363 -0.607487 -6.289731 2.785080 0.000000 0.000000 0.000000 0.000000 0.000000 0.000000 0.359325 -0.443519 9.153859 -0.570828 0.636077 -0.081545 -2.516559 0.772091 3.575812 0.000000 0.000000 0.000000 -0.305394 0.093679 9.067116 -0.000000 0.000000 0.000000 4.448422 10.335910 -2.621694 0.000000 0.000000 0.000000
-55.135696 81.445241 354.516921 0.315931 -0.162748 -9.273510 -0.338029 0.109707 9.274282 -0.000000 0.000000 0.000000 -9.388211 8.295204 0.099580 0.000000 0.000000 0.000000 -1.855794 -0.567488 0.143607 3.116521 -1.029067 -0.426962 -1.895937 8.654122 1.661988 2.942890 -8.100850 -1.279137 0.000000 0.000000 0.000000 0.000000 0.000000 0.000000 -0.000000 0.000000 0.000000 -0.000000 0.000000 0.000000 0.056484 7.774054 -2.869799 0.740660 -6.218200 2.604822 0.000000 0.000000 0.000000 0.000000 0.000000 0.000000 0.244466 -0.453593 9.365732 -0.483092 0.650564 -0.086959 -3.264072 -2.641414 3.433684 0.000000 0.000000 0.000000 -0.338029 0.109707 9.274282 -0.000000 0.000000 0.000000 4.381210 8.072246 -2.668643 0.000000 0.000000 0.000000
-55.137565 81.441429 354.526360 0.328737 -0.178846 -9.423020 -0.353583 0.122609 9.423912 -0.000000 0.000000 0.000000 -10.097971 8.514466 0.161350 0.000000 0.000000 0.000000 -2.016573 -0.693373 0.166488 3.318847 -0.998559 -0.467120 -1.731384 8.950756 1.693662 3.529047 -8.216816 -1.305297 0.000000 0.000000 0.000000 0.000000 0.000000 0.000000 -0.000000 0.000000 0.000000 -0.000000 0.000000 0.000000 -0.160048 8.023856 -2.891178 2.431071 -8.417514 2.764160 0.000000 0.000000 0.000000 0.000000 0.000000 0.000000 -0.353583 0.122609 9.423912 -0.000000 0.000000 0.000000 -3.831856 -6.932250 2.649266 0.000000 0.000000 0.000000 -0.353583 0.122609 9.423912 -0.000000 0.000000 0.000000 3.510256 -0.302873 -2.445795 0.000000 0.000000 0.000000
-55.131866 81.440070 354.542896 0.347310 -0.190139 -9.560823 -0.374068 0.129808 9.561823 -0.000000 0.000000 0.000000 -10.616387 8.575444 0.207489 0.000000 0.000000 0.000000 -2.110610 -0.712373 0.171677 3.413327 -1.049610 -0.475060 -1.552971 8.834845 1.643874 3.512714 -7.806285 -1.290410 0.000000 0.000000 0.000000 0.000000 0.000000 0.000000 -0.840778 0.113048 -0.082688 0.840942 -0.111822 0.084338 -0.267617 7.646050 -2.721142 1.796002 -8.196525 2.708983 0.000000 0.000000 0.000000 0.000000 0.000000 0.000000 -0.374068 0.129808 9.561823 -0.000000 0.000000 0.000000 -1.700040 1.577528 2.757718 0.000000 0.000000 0.000000 -0.374068 0.129808 9.561823 -0.000000 0.000000 0.000000 3.185101 -4.188064 -2.431671 0.000000 0.000000 0.000000
-55.133422 81.437730 354.554619 0.353018 -0.189882 -9.647221 -0.379847 0.128034 9.648230 -0.000000 0.000000 0.000000 -10.978785 8.212998 0.235924 0.000000 0.000000 0.000000 -2.111705 -0.667569 0.165123 3.349813 -1.097663 -0.453615 -0.990561 9.029579 1.618133 2.821550 -7.789054 -1.349033 0.000000 0.000000 0.000000 0.000000 0.000000 0.000000 -0.891652 0.095000 -0.090009 0.891802 -0.093588 0.091477 -0.453371 7.114538 -2.472260 2.143010 -8.217397 2.518583 0.000000 0.000000 0.000000 0.000000 0.000000 0.000000 -0.379847 0.128034 9.648230 -0.000000 0.000000 0.000000 -0.780800 4.977540 2.624301 0.000000 0.000000 0.000000 -0.379847 0.128034 9.648230 -0.000000 0.000000 0.000000 3.226228 -4.461663 -2.474437 0.000000 0.000000 0.000000
-55.126608 81.442562 354.564938 0.368459 -0.181593 -9.700328 -0.393789 0.116910 9.701314 -0.000000 0.000000 0.000000 -11.469110 7.978862 0.274465 0.000000 0.000000 0.000000 -2.097217 -0.567029 0.149968 3.305013 -1.186588 -0.426671 -0.350644 7.611047 1.300999 2.032229 -7.492859 -1.186910 0.000000 0.000000 0.000000 0.000000 0.000000 0.000000 -0.960146 0.067336 -0.100214 0.960263 -0.065647 0.101329 -0.613185 6.943378 -2.361610 1.955166 -8.331519 2.510021 0.000000 0.000000 0.000000 0.000000 0.000000 0.000000 -0.393789 0.116910 9.701314 -0.000000 0.000000 0.000000 1.121858 12.520994 2.374165 0.000000 0.000000 0.000000 -0.393789 0.116910 9.701314 -0.000000 0.000000 0.000000 6.601126 12.562493 -4.130697 0.000000 0.000000 0.000000
-55.134709 81.440900 354.586862 0.369557 -0.185950 -9.767875 -0.395748 0.120553 9.768891 -0.000000 0.000000 0.000000 -11.905376 7.700001 0.305778 0.000000 0.000000 0.000000 -2.100702 -0.457573 0.133972 3.309033 -1.312414 -0.404587 -0.356837 5.888783 0.991251 1.681447 -6.275588 -0.926430 0.000000 0.000000 0.000000 0.000000 0.000000 0.000000 -1.026978 0.047127 -0.109551 1.027067 -0.045156 0.110378 -1.012649 6.351304 -2.029086 1.603527 -8.080098 2.351608 0.000000 0.000000 0.000000 0.000000 0.000000 0.000000 -0.395748 0.120553 9.768891 -0.000000 0.000000 0.000000 2.084379 16.048671 2.117150 0.000000 0.000000 0.000000 -0.395748 0.120553 9.768891 -0.000000 0.000000 0.000000 8.138903 20.468406 -5.073729 0.000000 0.000000 0.000000
-55.154606 81.433746 354.615583 0.354962 -0.199112 -9.841535 -0.383772 0.135506 9.842605 -0.000000 0.000000 0.000000 -12.225108 7.367625 0.324673 0.000000 0.000000 0.000000 -2.099746 -0.355877 0.118998 3.333440 -1.465764 -0.388706 -0.679722 4.570199 0.769670 1.229206 -6.206468 -0.688172 0.000000 0.000000 0.000000 0.000000 0.000000 0.000000 -1.089211 0.037810 -0.117347 1.089287 -0.035572 0.118045 -1.289564 5.504618 -1.647229 1.453632 -5.463702 1.778591 0.000000 0.000000 0.000000 0.000000 0.000000 0.000000 -0.383772 0.135506 9.842605 -0.000000 0.000000 0.000000 2.698202 18.014114 1.869454 0.000000 0.000000 0.000000 -0.383772 0.135506 9.842605 -0.000000 0.000000 0.000000 7.127752 21.303257 -4.268110 0.000000 0.000000 0.000000
-55.180237 81.425714 354.642322 0.329869 -0.224777 -9.930862 -0.363693 0.164516 9.932031 -0.000000 0.000000 0.000000 -12.453532 7.086262 0.336021 0.000000 0.000000 0.000000 -2.132507 -0.330101 0.116151 3.356787 -1.534979 -0.383084 -1.348956 4.791683 0.841063 1.708669 -6.406466 -0.693358 0.000000 0.000000 0.000000 0.000000 0.000000 0.000000 -1.152318 0.052631 -0.122901 1.857390 -0.528137 -0.017232 -2.274102 5.866295 -1.369043 1.176727 -3.227341 1.495652 0.000000 0.000000 0.000000 0.000000 0.000000 0.000000 -0.363693 0.164516 9.932031 -0.000000 0.000000 0.000000 2.787914 18.251218 1.820237 0.000000 0.000000 0.000000 -0.363693 0.164516 9.932031 -0.000000 0.000000 0.000000 6.657277 23.814385 -3.828561 0.000000 0.000000 0.000000
-55.211069 81.419807 354.662941 0.297759 -0.255148 -10.002114 -0.337551 0.199551 10.003364 -0.000000 0.000000 0.000000 -12.619817 6.823091 0.342143 0.000000 0.000000 0.000000 -2.152670 -0.383450 0.124547 3.360090 -1.502145 -0.391788 -1.672412 5.784953 1.043656 1.991176 -7.039472 -0.831881 0.000000 0.000000 0.000000 0.000000 0.000000 0.000000 -1.226741 0.058935 -0.130526 1.984529 -0.568125 -0.019566 -2.039307 6.063767 -1.501497 1.296755 -3.230047 1.512862 0.000000 0.000000 0.000000 0.000000 0.000000 0.000000 -0.337551 0.199551 10.003364 -0.000000 0.000000 0.000000 2.209182 16.060076 1.967341 0.000000 0.000000 0.000000 -0.337551 0.199551 10.003364 -0.000000 0.000000 0.000000 6.485391 26.842129 -3.604044 0.000000 0.000000 0.000000
-55.235517 81.415789 354.688132 0.277153 -0.292631 -10.113513 -0.324234 0.239413 10.114899 -0.000000 0.000000 0.000000 -12.809508 6.562544 0.349234 0.000000 0.000000 0.000000 -2.180416 -0.442532 0.133972 3.355466 -1.430149 -0.398838 -2.251798 5.420240 1.009627 2.541718 -6.864149 -0.758760 0.000000 0.000000 0.000000 0.000000 0.000000 0.000000 -1.300126 0.065752 -0.137978 2.078724 -0.502584 -0.011993 -2.104543 5.096297 -1.173473 1.099168 -3.529964 1.369356 0.000000 0.000000 0.000000 0.000000 0.000000 0.000000 -0.324234 0.239413 10.114899 -0.000000 0.000000 0.000000 2.517080 17.156467 1.872562 0.000000 0.000000 0.000000 -0.324234 0.239413 10.114899 0.660317 0.491935 0.130648 5.869778 28.596013 -3.630815 0.000000 0.000000 0.000000
